<svg width="32" height="32" viewBox="0 0 32 32" fill="none" xmlns="http://www.w3.org/2000/svg">
  <rect width="32" height="32" rx="8" fill="#10B981"/>
  <path d="M8 12C8 10.8954 8.89543 10 10 10H22C23.1046 10 24 10.8954 24 12V20C24 21.1046 23.1046 22 22 22H10C8.89543 22 8 21.1046 8 20V12Z" fill="white"/>
  <path d="M12 14C12 13.4477 12.4477 13 13 13H19C19.5523 13 20 13.4477 20 14C20 14.5523 19.5523 15 19 15H13C12.4477 15 12 14.5523 12 14Z" fill="#10B981"/>
  <path d="M12 17C12 16.4477 12.4477 16 13 16H19C19.5523 16 20 16.4477 20 17C20 17.5523 19.5523 18 19 18H13C12.4477 18 12 17.5523 12 17Z" fill="#10B981"/>
  <path d="M12 20C12 19.4477 12.4477 19 13 19H16C16.5523 19 17 19.4477 17 20C17 20.5523 16.5523 21 16 21H13C12.4477 21 12 20.5523 12 20Z" fill="#10B981"/>
  <path d="M6 8C6 7.44772 6.44772 7 7 7H9C9.55228 7 10 7.44772 10 8V9C10 9.55228 9.55228 10 9 10H7C6.44772 10 6 9.55228 6 9V8Z" fill="#10B981"/>
  <path d="M22 8C22 7.44772 22.4477 7 23 7H25C25.5523 7 26 7.44772 26 8V9C26 9.55228 25.5523 10 25 10H23C22.4477 10 22 9.55228 22 9V8Z" fill="#10B981"/>
</svg>





